<mxfile host="app.diagrams.net" modified="2023-07-04T01:02:16.878Z" agent="Mozilla/5.0 (X11; Linux x86_64; rv:109.0) Gecko/20100101 Firefox/113.0" etag="53ctK-2ZQf-_xNEThkTH" version="21.5.2" type="github">
  <diagram id="C5RBs43oDa-KdzZeNtuy" name="Page-1">
    <mxGraphModel dx="880" dy="493" grid="1" gridSize="10" guides="1" tooltips="1" connect="1" arrows="1" fold="1" page="1" pageScale="1" pageWidth="827" pageHeight="1169" math="0" shadow="0">
      <root>
        <mxCell id="WIyWlLk6GJQsqaUBKTNV-0" />
        <mxCell id="WIyWlLk6GJQsqaUBKTNV-1" parent="WIyWlLk6GJQsqaUBKTNV-0" />
        <mxCell id="ddkmjFv0M5kGQ7oxEUTd-32" style="edgeStyle=orthogonalEdgeStyle;rounded=0;orthogonalLoop=1;jettySize=auto;html=1;" edge="1" parent="WIyWlLk6GJQsqaUBKTNV-1" source="ddkmjFv0M5kGQ7oxEUTd-0">
          <mxGeometry relative="1" as="geometry">
            <mxPoint x="680" y="510" as="targetPoint" />
          </mxGeometry>
        </mxCell>
        <mxCell id="ddkmjFv0M5kGQ7oxEUTd-0" value="&lt;div&gt;MongoDB&lt;/div&gt;" style="shape=cylinder3;whiteSpace=wrap;html=1;boundedLbl=1;backgroundOutline=1;size=15;fillColor=#6a00ff;fontColor=#ffffff;strokeColor=#3700CC;" vertex="1" parent="WIyWlLk6GJQsqaUBKTNV-1">
          <mxGeometry x="750" y="470" width="60" height="80" as="geometry" />
        </mxCell>
        <mxCell id="ddkmjFv0M5kGQ7oxEUTd-23" style="edgeStyle=orthogonalEdgeStyle;rounded=0;orthogonalLoop=1;jettySize=auto;html=1;entryX=0;entryY=0.5;entryDx=0;entryDy=0;entryPerimeter=0;" edge="1" parent="WIyWlLk6GJQsqaUBKTNV-1" source="ddkmjFv0M5kGQ7oxEUTd-1" target="ddkmjFv0M5kGQ7oxEUTd-0">
          <mxGeometry relative="1" as="geometry" />
        </mxCell>
        <mxCell id="ddkmjFv0M5kGQ7oxEUTd-1" value="&lt;div&gt;Mongoose&lt;/div&gt;" style="whiteSpace=wrap;html=1;aspect=fixed;fillColor=#0050ef;fontColor=#ffffff;strokeColor=#001DBC;" vertex="1" parent="WIyWlLk6GJQsqaUBKTNV-1">
          <mxGeometry x="600" y="470" width="80" height="80" as="geometry" />
        </mxCell>
        <mxCell id="ddkmjFv0M5kGQ7oxEUTd-21" style="edgeStyle=orthogonalEdgeStyle;rounded=0;orthogonalLoop=1;jettySize=auto;html=1;entryX=1;entryY=0.5;entryDx=0;entryDy=0;" edge="1" parent="WIyWlLk6GJQsqaUBKTNV-1" source="ddkmjFv0M5kGQ7oxEUTd-2" target="ddkmjFv0M5kGQ7oxEUTd-6">
          <mxGeometry relative="1" as="geometry">
            <mxPoint x="400" y="520" as="targetPoint" />
          </mxGeometry>
        </mxCell>
        <mxCell id="ddkmjFv0M5kGQ7oxEUTd-22" style="edgeStyle=orthogonalEdgeStyle;rounded=0;orthogonalLoop=1;jettySize=auto;html=1;" edge="1" parent="WIyWlLk6GJQsqaUBKTNV-1" source="ddkmjFv0M5kGQ7oxEUTd-2" target="ddkmjFv0M5kGQ7oxEUTd-1">
          <mxGeometry relative="1" as="geometry">
            <mxPoint x="590" y="520" as="targetPoint" />
          </mxGeometry>
        </mxCell>
        <mxCell id="ddkmjFv0M5kGQ7oxEUTd-2" value="&lt;div&gt;GraphQL&lt;/div&gt;" style="ellipse;whiteSpace=wrap;html=1;aspect=fixed;fillColor=#d80073;fontColor=#ffffff;strokeColor=#A50040;" vertex="1" parent="WIyWlLk6GJQsqaUBKTNV-1">
          <mxGeometry x="470" y="470" width="80" height="80" as="geometry" />
        </mxCell>
        <mxCell id="ddkmjFv0M5kGQ7oxEUTd-5" value="&lt;div&gt;React Native&lt;/div&gt;" style="ellipse;whiteSpace=wrap;html=1;aspect=fixed;fillColor=#1ba1e2;fontColor=#ffffff;strokeColor=#006EAF;" vertex="1" parent="WIyWlLk6GJQsqaUBKTNV-1">
          <mxGeometry x="170" y="470" width="80" height="80" as="geometry" />
        </mxCell>
        <mxCell id="ddkmjFv0M5kGQ7oxEUTd-20" style="edgeStyle=orthogonalEdgeStyle;rounded=0;orthogonalLoop=1;jettySize=auto;html=1;entryX=1;entryY=0.5;entryDx=0;entryDy=0;" edge="1" parent="WIyWlLk6GJQsqaUBKTNV-1" source="ddkmjFv0M5kGQ7oxEUTd-6" target="ddkmjFv0M5kGQ7oxEUTd-5">
          <mxGeometry relative="1" as="geometry">
            <mxPoint x="260" y="520" as="targetPoint" />
          </mxGeometry>
        </mxCell>
        <mxCell id="ddkmjFv0M5kGQ7oxEUTd-6" value="&lt;div&gt;Apollo Server&lt;/div&gt;" style="ellipse;whiteSpace=wrap;html=1;aspect=fixed;fillColor=#a20025;fontColor=#ffffff;strokeColor=#6F0000;" vertex="1" parent="WIyWlLk6GJQsqaUBKTNV-1">
          <mxGeometry x="320" y="470" width="80" height="80" as="geometry" />
        </mxCell>
        <mxCell id="ddkmjFv0M5kGQ7oxEUTd-34" style="edgeStyle=orthogonalEdgeStyle;rounded=0;orthogonalLoop=1;jettySize=auto;html=1;entryX=0.5;entryY=1;entryDx=0;entryDy=0;" edge="1" parent="WIyWlLk6GJQsqaUBKTNV-1" source="ddkmjFv0M5kGQ7oxEUTd-7" target="ddkmjFv0M5kGQ7oxEUTd-6">
          <mxGeometry relative="1" as="geometry" />
        </mxCell>
        <mxCell id="ddkmjFv0M5kGQ7oxEUTd-7" value="&lt;div&gt;ExpressJS&lt;/div&gt;" style="rhombus;whiteSpace=wrap;html=1;fillColor=#60a917;fontColor=#ffffff;strokeColor=#2D7600;" vertex="1" parent="WIyWlLk6GJQsqaUBKTNV-1">
          <mxGeometry x="320" y="570" width="80" height="80" as="geometry" />
        </mxCell>
        <mxCell id="ddkmjFv0M5kGQ7oxEUTd-33" style="edgeStyle=orthogonalEdgeStyle;rounded=0;orthogonalLoop=1;jettySize=auto;html=1;" edge="1" parent="WIyWlLk6GJQsqaUBKTNV-1" source="ddkmjFv0M5kGQ7oxEUTd-31" target="ddkmjFv0M5kGQ7oxEUTd-6">
          <mxGeometry relative="1" as="geometry" />
        </mxCell>
        <mxCell id="ddkmjFv0M5kGQ7oxEUTd-31" value="&lt;div&gt;NodeJS&lt;/div&gt;" style="rhombus;whiteSpace=wrap;html=1;fillColor=#60a917;fontColor=#ffffff;strokeColor=#2D7600;" vertex="1" parent="WIyWlLk6GJQsqaUBKTNV-1">
          <mxGeometry x="320" y="370" width="80" height="80" as="geometry" />
        </mxCell>
        <mxCell id="ddkmjFv0M5kGQ7oxEUTd-35" style="edgeStyle=orthogonalEdgeStyle;rounded=0;orthogonalLoop=1;jettySize=auto;html=1;exitX=1;exitY=0.5;exitDx=0;exitDy=0;entryX=0.875;entryY=0.5;entryDx=0;entryDy=0;entryPerimeter=0;fillColor=#1ba1e2;strokeColor=#006EAF;" edge="1" parent="WIyWlLk6GJQsqaUBKTNV-1" source="ddkmjFv0M5kGQ7oxEUTd-5" target="ddkmjFv0M5kGQ7oxEUTd-5">
          <mxGeometry relative="1" as="geometry" />
        </mxCell>
      </root>
    </mxGraphModel>
  </diagram>
</mxfile>
